<svg xmlns="http://www.w3.org/2000/svg" width="160" height="36" viewBox="0 0 160 36" fill="none">
  <defs>
    <linearGradient id="area-grad-38bdf8" x1="0%" y1="0%" x2="0%" y2="100%">
      <stop offset="0%" stop-color="#38bdf8" stop-opacity="0.25" />
      <stop offset="100%" stop-color="#38bdf8" stop-opacity="0.00" />
    </linearGradient>
  </defs>
  <!-- Card Base -->
  <rect width="160" height="36" rx="6" fill="#0d1117" stroke="#21262d" stroke-width="1" />
  
  <!-- Weekly Commit Activity Bars -->
  <g>
    <rect x="10.0" y="13.5" width="8" height="16.5" rx="2" fill="#38bdf8" fill-opacity="0.74" />
    <rect x="28.9" y="13.5" width="8" height="16.5" rx="2" fill="#38bdf8" fill-opacity="0.74" />
    <rect x="47.7" y="15.2" width="8" height="14.8" rx="2" fill="#38bdf8" fill-opacity="0.70" />
    <rect x="66.6" y="7.0" width="8" height="23.0" rx="2" fill="#38bdf8" fill-opacity="0.90" />
    <rect x="85.4" y="26.0" width="8" height="4.0" rx="2" fill="#38bdf8" fill-opacity="0.42" />
    <rect x="104.3" y="26.0" width="8" height="4.0" rx="2" fill="#38bdf8" fill-opacity="0.37" />
    <rect x="123.1" y="28.0" width="8" height="2.0" rx="2" fill="#38bdf8" fill-opacity="0.12" />
    <rect x="142.0" y="26.0" width="8" height="4.0" rx="2" fill="#38bdf8" fill-opacity="0.36" />
  </g>

  <!-- Trend Overlay Curve -->
  <path d="M 14.0 13.5 L 32.9 13.5 L 51.7 15.2 L 70.6 7.0 L 89.4 26.9 L 108.3 29.3 L 127.1 30.0 L 146.0 29.7 L 146.0 30.0 L 14.0 30.0 Z" fill="url(#area-grad-38bdf8)" />
  <path d="M 14.0 13.5 L 32.9 13.5 L 51.7 15.2 L 70.6 7.0 L 89.4 26.9 L 108.3 29.3 L 127.1 30.0 L 146.0 29.7" stroke="#38bdf8" stroke-width="1.8" stroke-linecap="round" stroke-linejoin="round" />
  <circle cx="146.0" cy="29.7" r="3" fill="#38bdf8" stroke="#0d1117" stroke-width="1" />
</svg>