<svg xmlns="http://www.w3.org/2000/svg" width="300" height="155" viewBox="0 0 300 155">
  <rect width="300" height="155" rx="10" fill="#10161f" stroke="#232b38" stroke-width="1" />
  <text x="14" y="18" font-family="-apple-system, 'Segoe UI', Helvetica, Arial, sans-serif" font-size="12" font-weight="700" fill="#f1f5f9">@konethegreatest</text>
  <text x="14" y="32" font-family="-apple-system, 'Segoe UI', Helvetica, Arial, sans-serif" font-size="10"><tspan font-weight="700" fill="#c9a961">1,170</tspan><tspan fill="#64748b"> contributions · 84% active</tspan></text>
  <text x="14" y="42" font-family="-apple-system, 'Segoe UI', Helvetica, Arial, sans-serif" font-size="9" fill="#94a3b8">Jun</text><text x="53" y="42" font-family="-apple-system, 'Segoe UI', Helvetica, Arial, sans-serif" font-size="9" fill="#94a3b8">Jul</text><text x="105" y="42" font-family="-apple-system, 'Segoe UI', Helvetica, Arial, sans-serif" font-size="9" fill="#94a3b8">Aug</text><text x="170" y="42" font-family="-apple-system, 'Segoe UI', Helvetica, Arial, sans-serif" font-size="9" fill="#94a3b8">Sep</text>
  <g><rect x="14" y="48" width="10" height="10" rx="2" fill="#161a22" fill-opacity="0.3" stroke="#232b38" stroke-width="0.5" /><rect x="14" y="61" width="10" height="10" rx="2" fill="#161a22" fill-opacity="0.3" stroke="#232b38" stroke-width="0.5" /><rect x="14" y="74" width="10" height="10" rx="2" fill="#161a22" fill-opacity="0.3" stroke="#232b38" stroke-width="0.5" /><rect x="14" y="87" width="10" height="10" rx="2" fill="#161a22" fill-opacity="0.3" stroke="#232b38" stroke-width="0.5" /><rect x="14" y="100" width="10" height="10" rx="2" fill="#161a22" fill-opacity="0.3" stroke="#232b38" stroke-width="0.5" /><rect x="14" y="113" width="10" height="10" rx="2" fill="#3a2f1a" fill-opacity="1" stroke="#232b38" stroke-width="0.5" /><rect x="14" y="126" width="10" height="10" rx="2" fill="#161a22" fill-opacity="1" stroke="#232b38" stroke-width="0.5" /><rect x="27" y="48" width="10" height="10" rx="2" fill="#161a22" fill-opacity="1" stroke="#232b38" stroke-width="0.5" /><rect x="27" y="61" width="10" height="10" rx="2" fill="#161a22" fill-opacity="1" stroke="#232b38" stroke-width="0.5" /><rect x="27" y="74" width="10" height="10" rx="2" fill="#161a22" fill-opacity="1" stroke="#232b38" stroke-width="0.5" /><rect x="27" y="87" width="10" height="10" rx="2" fill="#6b5424" fill-opacity="1" stroke="#232b38" stroke-width="0.5" /><rect x="27" y="100" width="10" height="10" rx="2" fill="#161a22" fill-opacity="1" stroke="#232b38" stroke-width="0.5" /><rect x="27" y="113" width="10" height="10" rx="2" fill="#161a22" fill-opacity="1" stroke="#232b38" stroke-width="0.5" /><rect x="27" y="126" width="10" height="10" rx="2" fill="#161a22" fill-opacity="1" stroke="#232b38" stroke-width="0.5" /><rect x="40" y="48" width="10" height="10" rx="2" fill="#161a22" fill-opacity="1" stroke="#232b38" stroke-width="0.5" /><rect x="40" y="61" width="10" height="10" rx="2" fill="#161a22" fill-opacity="1" stroke="#232b38" stroke-width="0.5" /><rect x="40" y="74" width="10" height="10" rx="2" fill="#161a22" fill-opacity="1" stroke="#232b38" stroke-width="0.5" /><rect x="40" y="87" width="10" height="10" rx="2" fill="#161a22" fill-opacity="1" stroke="#232b38" stroke-width="0.5" /><rect x="40" y="100" width="10" height="10" rx="2" fill="#3a2f1a" fill-opacity="1" stroke="#232b38" stroke-width="0.5" /><rect x="40" y="113" width="10" height="10" rx="2" fill="#c9a961" fill-opacity="1" stroke="#232b38" stroke-width="0.5" /><rect x="40" y="126" width="10" height="10" rx="2" fill="#3a2f1a" fill-opacity="1" stroke="#232b38" stroke-width="0.5" /><rect x="53" y="48" width="10" height="10" rx="2" fill="#c9a961" fill-opacity="1" stroke="#232b38" stroke-width="0.5" /><rect x="53" y="61" width="10" height="10" rx="2" fill="#a3812f" fill-opacity="1" stroke="#232b38" stroke-width="0.5" /><rect x="53" y="74" width="10" height="10" rx="2" fill="#a3812f" fill-opacity="1" stroke="#232b38" stroke-width="0.5" /><rect x="53" y="87" width="10" height="10" rx="2" fill="#c9a961" fill-opacity="1" stroke="#232b38" stroke-width="0.5" /><rect x="53" y="100" width="10" height="10" rx="2" fill="#c9a961" fill-opacity="1" stroke="#232b38" stroke-width="0.5" /><rect x="53" y="113" width="10" height="10" rx="2" fill="#c9a961" fill-opacity="1" stroke="#232b38" stroke-width="0.5" /><rect x="53" y="126" width="10" height="10" rx="2" fill="#c9a961" fill-opacity="1" stroke="#232b38" stroke-width="0.5" /><rect x="66" y="48" width="10" height="10" rx="2" fill="#c9a961" fill-opacity="1" stroke="#232b38" stroke-width="0.5" /><rect x="66" y="61" width="10" height="10" rx="2" fill="#c9a961" fill-opacity="1" stroke="#232b38" stroke-width="0.5" /><rect x="66" y="74" width="10" height="10" rx="2" fill="#c9a961" fill-opacity="1" stroke="#232b38" stroke-width="0.5" /><rect x="66" y="87" width="10" height="10" rx="2" fill="#c9a961" fill-opacity="1" stroke="#232b38" stroke-width="0.5" /><rect x="66" y="100" width="10" height="10" rx="2" fill="#c9a961" fill-opacity="1" stroke="#232b38" stroke-width="0.5" /><rect x="66" y="113" width="10" height="10" rx="2" fill="#c9a961" fill-opacity="1" stroke="#232b38" stroke-width="0.5" /><rect x="66" y="126" width="10" height="10" rx="2" fill="#c9a961" fill-opacity="1" stroke="#232b38" stroke-width="0.5" /><rect x="79" y="48" width="10" height="10" rx="2" fill="#c9a961" fill-opacity="1" stroke="#232b38" stroke-width="0.5" /><rect x="79" y="61" width="10" height="10" rx="2" fill="#c9a961" fill-opacity="1" stroke="#232b38" stroke-width="0.5" /><rect x="79" y="74" width="10" height="10" rx="2" fill="#c9a961" fill-opacity="1" stroke="#232b38" stroke-width="0.5" /><rect x="79" y="87" width="10" height="10" rx="2" fill="#c9a961" fill-opacity="1" stroke="#232b38" stroke-width="0.5" /><rect x="79" y="100" width="10" height="10" rx="2" fill="#c9a961" fill-opacity="1" stroke="#232b38" stroke-width="0.5" /><rect x="79" y="113" width="10" height="10" rx="2" fill="#c9a961" fill-opacity="1" stroke="#232b38" stroke-width="0.5" /><rect x="79" y="126" width="10" height="10" rx="2" fill="#c9a961" fill-opacity="1" stroke="#232b38" stroke-width="0.5" /><rect x="92" y="48" width="10" height="10" rx="2" fill="#3a2f1a" fill-opacity="1" stroke="#232b38" stroke-width="0.5" /><rect x="92" y="61" width="10" height="10" rx="2" fill="#c9a961" fill-opacity="1" stroke="#232b38" stroke-width="0.5" /><rect x="92" y="74" width="10" height="10" rx="2" fill="#a3812f" fill-opacity="1" stroke="#232b38" stroke-width="0.5" /><rect x="92" y="87" width="10" height="10" rx="2" fill="#c9a961" fill-opacity="1" stroke="#232b38" stroke-width="0.5" /><rect x="92" y="100" width="10" height="10" rx="2" fill="#c9a961" fill-opacity="1" stroke="#232b38" stroke-width="0.5" /><rect x="92" y="113" width="10" height="10" rx="2" fill="#c9a961" fill-opacity="1" stroke="#232b38" stroke-width="0.5" /><rect x="92" y="126" width="10" height="10" rx="2" fill="#a3812f" fill-opacity="1" stroke="#232b38" stroke-width="0.5" /><rect x="105" y="48" width="10" height="10" rx="2" fill="#c9a961" fill-opacity="1" stroke="#232b38" stroke-width="0.5" /><rect x="105" y="61" width="10" height="10" rx="2" fill="#a3812f" fill-opacity="1" stroke="#232b38" stroke-width="0.5" /><rect x="105" y="74" width="10" height="10" rx="2" fill="#c9a961" fill-opacity="1" stroke="#232b38" stroke-width="0.5" /><rect x="105" y="87" width="10" height="10" rx="2" fill="#c9a961" fill-opacity="1" stroke="#232b38" stroke-width="0.5" /><rect x="105" y="100" width="10" height="10" rx="2" fill="#c9a961" fill-opacity="1" stroke="#232b38" stroke-width="0.5" /><rect x="105" y="113" width="10" height="10" rx="2" fill="#c9a961" fill-opacity="1" stroke="#232b38" stroke-width="0.5" /><rect x="105" y="126" width="10" height="10" rx="2" fill="#c9a961" fill-opacity="1" stroke="#232b38" stroke-width="0.5" /><rect x="118" y="48" width="10" height="10" rx="2" fill="#c9a961" fill-opacity="1" stroke="#232b38" stroke-width="0.5" /><rect x="118" y="61" width="10" height="10" rx="2" fill="#c9a961" fill-opacity="1" stroke="#232b38" stroke-width="0.5" /><rect x="118" y="74" width="10" height="10" rx="2" fill="#c9a961" fill-opacity="1" stroke="#232b38" stroke-width="0.5" /><rect x="118" y="87" width="10" height="10" rx="2" fill="#c9a961" fill-opacity="1" stroke="#232b38" stroke-width="0.5" /><rect x="118" y="100" width="10" height="10" rx="2" fill="#c9a961" fill-opacity="1" stroke="#232b38" stroke-width="0.5" /><rect x="118" y="113" width="10" height="10" rx="2" fill="#a3812f" fill-opacity="1" stroke="#232b38" stroke-width="0.5" /><rect x="118" y="126" width="10" height="10" rx="2" fill="#c9a961" fill-opacity="1" stroke="#232b38" stroke-width="0.5" /><rect x="131" y="48" width="10" height="10" rx="2" fill="#c9a961" fill-opacity="1" stroke="#232b38" stroke-width="0.5" /><rect x="131" y="61" width="10" height="10" rx="2" fill="#a3812f" fill-opacity="1" stroke="#232b38" stroke-width="0.5" /><rect x="131" y="74" width="10" height="10" rx="2" fill="#6b5424" fill-opacity="1" stroke="#232b38" stroke-width="0.5" /><rect x="131" y="87" width="10" height="10" rx="2" fill="#a3812f" fill-opacity="1" stroke="#232b38" stroke-width="0.5" /><rect x="131" y="100" width="10" height="10" rx="2" fill="#6b5424" fill-opacity="1" stroke="#232b38" stroke-width="0.5" /><rect x="131" y="113" width="10" height="10" rx="2" fill="#6b5424" fill-opacity="1" stroke="#232b38" stroke-width="0.5" /><rect x="131" y="126" width="10" height="10" rx="2" fill="#a3812f" fill-opacity="1" stroke="#232b38" stroke-width="0.5" /><rect x="144" y="48" width="10" height="10" rx="2" fill="#3a2f1a" fill-opacity="1" stroke="#232b38" stroke-width="0.5" /><rect x="144" y="61" width="10" height="10" rx="2" fill="#3a2f1a" fill-opacity="1" stroke="#232b38" stroke-width="0.5" /><rect x="144" y="74" width="10" height="10" rx="2" fill="#6b5424" fill-opacity="1" stroke="#232b38" stroke-width="0.5" /><rect x="144" y="87" width="10" height="10" rx="2" fill="#161a22" fill-opacity="1" stroke="#232b38" stroke-width="0.5" /><rect x="144" y="100" width="10" height="10" rx="2" fill="#a3812f" fill-opacity="1" stroke="#232b38" stroke-width="0.5" /><rect x="144" y="113" width="10" height="10" rx="2" fill="#3a2f1a" fill-opacity="1" stroke="#232b38" stroke-width="0.5" /><rect x="144" y="126" width="10" height="10" rx="2" fill="#6b5424" fill-opacity="1" stroke="#232b38" stroke-width="0.5" /><rect x="157" y="48" width="10" height="10" rx="2" fill="#a3812f" fill-opacity="1" stroke="#232b38" stroke-width="0.5" /><rect x="157" y="61" width="10" height="10" rx="2" fill="#6b5424" fill-opacity="1" stroke="#232b38" stroke-width="0.5" /><rect x="157" y="74" width="10" height="10" rx="2" fill="#6b5424" fill-opacity="1" stroke="#232b38" stroke-width="0.5" /><rect x="157" y="87" width="10" height="10" rx="2" fill="#a3812f" fill-opacity="1" stroke="#232b38" stroke-width="0.5" /><rect x="157" y="100" width="10" height="10" rx="2" fill="#6b5424" fill-opacity="1" stroke="#232b38" stroke-width="0.5" /><rect x="157" y="113" width="10" height="10" rx="2" fill="#c9a961" fill-opacity="1" stroke="#232b38" stroke-width="0.5" /><rect x="157" y="126" width="10" height="10" rx="2" fill="#c9a961" fill-opacity="1" stroke="#232b38" stroke-width="0.5" /><rect x="170" y="48" width="10" height="10" rx="2" fill="#161a22" fill-opacity="1" stroke="#232b38" stroke-width="0.5" /><rect x="170" y="61" width="10" height="10" rx="2" fill="#161a22" fill-opacity="0.3" stroke="#232b38" stroke-width="0.5" /><rect x="170" y="74" width="10" height="10" rx="2" fill="#161a22" fill-opacity="0.3" stroke="#232b38" stroke-width="0.5" /><rect x="170" y="87" width="10" height="10" rx="2" fill="#161a22" fill-opacity="0.3" stroke="#232b38" stroke-width="0.5" /><rect x="170" y="100" width="10" height="10" rx="2" fill="#161a22" fill-opacity="0.3" stroke="#232b38" stroke-width="0.5" /><rect x="170" y="113" width="10" height="10" rx="2" fill="#161a22" fill-opacity="0.3" stroke="#232b38" stroke-width="0.5" /><rect x="170" y="126" width="10" height="10" rx="2" fill="#161a22" fill-opacity="0.3" stroke="#232b38" stroke-width="0.5" /></g>
</svg>