<svg xmlns="http://www.w3.org/2000/svg" width="160" height="36" viewBox="0 0 160 36" fill="none">
  <defs>
    <linearGradient id="area-grad-34d399" x1="0%" y1="0%" x2="0%" y2="100%">
      <stop offset="0%" stop-color="#34d399" stop-opacity="0.25" />
      <stop offset="100%" stop-color="#34d399" stop-opacity="0.00" />
    </linearGradient>
  </defs>
  <!-- Card Base -->
  <rect width="160" height="36" rx="6" fill="#0d1117" stroke="#21262d" stroke-width="1" />
  
  <!-- Weekly Commit Activity Bars -->
  <g>
    <rect x="10.0" y="26.0" width="8" height="4.0" rx="2" fill="#34d399" fill-opacity="0.41" />
    <rect x="28.9" y="24.6" width="8" height="5.4" rx="2" fill="#34d399" fill-opacity="0.48" />
    <rect x="47.7" y="23.2" width="8" height="6.8" rx="2" fill="#34d399" fill-opacity="0.51" />
    <rect x="66.6" y="19.2" width="8" height="10.8" rx="2" fill="#34d399" fill-opacity="0.61" />
    <rect x="85.4" y="16.5" width="8" height="13.5" rx="2" fill="#34d399" fill-opacity="0.67" />
    <rect x="104.3" y="13.8" width="8" height="16.2" rx="2" fill="#34d399" fill-opacity="0.74" />
    <rect x="123.1" y="9.7" width="8" height="20.3" rx="2" fill="#34d399" fill-opacity="0.84" />
    <rect x="142.0" y="7.0" width="8" height="23.0" rx="2" fill="#34d399" fill-opacity="0.90" />
  </g>

  <!-- Trend Overlay Curve -->
  <path d="M 14.0 27.3 L 32.9 24.6 L 51.7 23.2 L 70.6 19.2 L 89.4 16.5 L 108.3 13.8 L 127.1 9.7 L 146.0 7.0 L 146.0 30.0 L 14.0 30.0 Z" fill="url(#area-grad-34d399)" />
  <path d="M 14.0 27.3 L 32.9 24.6 L 51.7 23.2 L 70.6 19.2 L 89.4 16.5 L 108.3 13.8 L 127.1 9.7 L 146.0 7.0" stroke="#34d399" stroke-width="1.8" stroke-linecap="round" stroke-linejoin="round" />
  <circle cx="146.0" cy="7.0" r="3" fill="#34d399" stroke="#0d1117" stroke-width="1" />
</svg>