<svg xmlns="http://www.w3.org/2000/svg" width="300" height="155" viewBox="0 0 300 155">
  <rect width="300" height="155" rx="10" fill="#10161f" stroke="#232b38" stroke-width="1" />
  <text x="14" y="18" font-family="-apple-system, 'Segoe UI', Helvetica, Arial, sans-serif" font-size="12" font-weight="700" fill="#f1f5f9">@TheoSingo</text>
  <text x="14" y="32" font-family="-apple-system, 'Segoe UI', Helvetica, Arial, sans-serif" font-size="10"><tspan font-weight="700" fill="#c9a961">5</tspan><tspan fill="#64748b"> contributions · 18% active</tspan></text>
  <text x="14" y="42" font-family="-apple-system, 'Segoe UI', Helvetica, Arial, sans-serif" font-size="9" fill="#94a3b8">Aug</text>
  <g><rect x="14" y="48" width="10" height="10" rx="2" fill="#161a22" fill-opacity="0.3" stroke="#232b38" stroke-width="0.5" /><rect x="14" y="61" width="10" height="10" rx="2" fill="#161a22" fill-opacity="0.3" stroke="#232b38" stroke-width="0.5" /><rect x="14" y="74" width="10" height="10" rx="2" fill="#161a22" fill-opacity="0.3" stroke="#232b38" stroke-width="0.5" /><rect x="14" y="87" width="10" height="10" rx="2" fill="#161a22" fill-opacity="0.3" stroke="#232b38" stroke-width="0.5" /><rect x="14" y="100" width="10" height="10" rx="2" fill="#3a2f1a" fill-opacity="1" stroke="#232b38" stroke-width="0.5" /><rect x="14" y="113" width="10" height="10" rx="2" fill="#161a22" fill-opacity="1" stroke="#232b38" stroke-width="0.5" /><rect x="14" y="126" width="10" height="10" rx="2" fill="#161a22" fill-opacity="1" stroke="#232b38" stroke-width="0.5" /><rect x="27" y="48" width="10" height="10" rx="2" fill="#161a22" fill-opacity="1" stroke="#232b38" stroke-width="0.5" /><rect x="27" y="61" width="10" height="10" rx="2" fill="#161a22" fill-opacity="1" stroke="#232b38" stroke-width="0.5" /><rect x="27" y="74" width="10" height="10" rx="2" fill="#161a22" fill-opacity="1" stroke="#232b38" stroke-width="0.5" /><rect x="27" y="87" width="10" height="10" rx="2" fill="#161a22" fill-opacity="1" stroke="#232b38" stroke-width="0.5" /><rect x="27" y="100" width="10" height="10" rx="2" fill="#161a22" fill-opacity="1" stroke="#232b38" stroke-width="0.5" /><rect x="27" y="113" width="10" height="10" rx="2" fill="#161a22" fill-opacity="1" stroke="#232b38" stroke-width="0.5" /><rect x="27" y="126" width="10" height="10" rx="2" fill="#161a22" fill-opacity="1" stroke="#232b38" stroke-width="0.5" /><rect x="40" y="48" width="10" height="10" rx="2" fill="#161a22" fill-opacity="1" stroke="#232b38" stroke-width="0.5" /><rect x="40" y="61" width="10" height="10" rx="2" fill="#161a22" fill-opacity="1" stroke="#232b38" stroke-width="0.5" /><rect x="40" y="74" width="10" height="10" rx="2" fill="#161a22" fill-opacity="1" stroke="#232b38" stroke-width="0.5" /><rect x="40" y="87" width="10" height="10" rx="2" fill="#161a22" fill-opacity="1" stroke="#232b38" stroke-width="0.5" /><rect x="40" y="100" width="10" height="10" rx="2" fill="#3a2f1a" fill-opacity="1" stroke="#232b38" stroke-width="0.5" /><rect x="40" y="113" width="10" height="10" rx="2" fill="#3a2f1a" fill-opacity="1" stroke="#232b38" stroke-width="0.5" /><rect x="40" y="126" width="10" height="10" rx="2" fill="#161a22" fill-opacity="1" stroke="#232b38" stroke-width="0.5" /></g>
</svg>